HIERARCHY
ROOT Hips
{
	OFFSET 0.000000 121.760803 0.000000
	CHANNELS 6 Xposition Yposition Zposition Xrotation Yrotation Zrotation 
	JOINT Spine
	{
		OFFSET 0.072000 7.257294 -0.789700
		CHANNELS 3 Xrotation Yrotation Zrotation
		JOINT Spine1
		{
			OFFSET 0.000000 12.508769 -0.658067
			CHANNELS 3 Xrotation Yrotation Zrotation
			JOINT Spine1_split
			{
				OFFSET 0.000000 12.508769 -0.658067
				CHANNELS 3 Xrotation Yrotation Zrotation
				JOINT Spine2
				{
					OFFSET 0.000000 12.508769 -0.658067
					CHANNELS 3 Xrotation Yrotation Zrotation
					JOINT Neck
					{
						OFFSET 0.000000 14.033295 7.520400
						CHANNELS 3 Xrotation Yrotation Zrotation
						JOINT Head
						{
							OFFSET 0.000000 8.198502 5.703100
							CHANNELS 3 Xrotation Yrotation Zrotation
							JOINT HeadTop_End
							{
								OFFSET 0.000000 17.760803 13.332701
								CHANNELS 3 Xrotation Yrotation Zrotation
								End Site
								{
									OFFSET 0.000000 0.000000 0.000000
								}
							}
						}
					}
					JOINT LeftShoulder
					{
						OFFSET 6.292450 5.785301 -0.669000
						CHANNELS 3 Xrotation Yrotation Zrotation
						JOINT LeftShoulder_split
						{
							OFFSET 6.292450 5.785301 -0.669000
							CHANNELS 3 Xrotation Yrotation Zrotation
							JOINT LeftArm
							{
								OFFSET 13.907140 -6.093903 1.965100
								CHANNELS 3 Xrotation Yrotation Zrotation
								JOINT LeftForeArm
								{
									OFFSET 34.140198 0.000000 0.000000
									CHANNELS 3 Xrotation Yrotation Zrotation
									JOINT LeftHand
									{
										OFFSET 40.960209 0.000000 0.000000
										CHANNELS 3 Xrotation Yrotation Zrotation
										JOINT LeftHandThumb1
										{
											OFFSET 10.006996 -7.170425 9.573125
											CHANNELS 3 Xrotation Yrotation Zrotation
											JOINT LeftHandThumb2
											{
												OFFSET 1.835007 -1.059448 1.059443
												CHANNELS 3 Xrotation Yrotation Zrotation
												JOINT LeftHandThumb3
												{
													OFFSET 2.112267 -1.219513 1.219518
													CHANNELS 3 Xrotation Yrotation Zrotation
													JOINT LeftHandThumb4
													{
														OFFSET 4.843811 -2.796570 2.796576
														CHANNELS 3 Xrotation Yrotation Zrotation
														End Site
														{
															OFFSET 0.000000 0.000000 0.000000
														}
													}
												}
											}
										}
										JOINT LeftHandIndex1
										{
											OFFSET 18.389847 -0.922348 4.596882
											CHANNELS 3 Xrotation Yrotation Zrotation
											JOINT LeftHandIndex2
											{
												OFFSET 4.711273 0.000000 0.000000
												CHANNELS 3 Xrotation Yrotation Zrotation
												JOINT LeftHandIndex3
												{
													OFFSET 2.886131 0.000000 0.000000
													CHANNELS 3 Xrotation Yrotation Zrotation
													JOINT LeftHandIndex4
													{
														OFFSET 6.145912 0.000000 0.000000
														CHANNELS 3 Xrotation Yrotation Zrotation
														End Site
														{
															OFFSET 0.000000 0.000000 0.000000
														}
													}
												}
											}
										}
										JOINT LeftHandMiddle1
										{
											OFFSET 18.013008 0.000000 0.000000
											CHANNELS 3 Xrotation Yrotation Zrotation
											JOINT LeftHandMiddle2
											{
												OFFSET 4.946693 0.000000 0.000000
												CHANNELS 3 Xrotation Yrotation Zrotation
												JOINT LeftHandMiddle3
												{
													OFFSET 3.342232 0.000000 0.000000
													CHANNELS 3 Xrotation Yrotation Zrotation
													JOINT LeftHandMiddle4
													{
														OFFSET 4.461754 0.000000 0.000000
														CHANNELS 3 Xrotation Yrotation Zrotation
														End Site
														{
															OFFSET 0.000000 0.000000 0.000000
														}
													}
												}
											}
										}
										JOINT LeftHandRing1
										{
											OFFSET 15.849892 -0.102921 -4.126150
											CHANNELS 3 Xrotation Yrotation Zrotation
											JOINT LeftHandRing2
											{
												OFFSET 3.527054 0.000000 0.000000
												CHANNELS 3 Xrotation Yrotation Zrotation
												JOINT LeftHandRing3
												{
													OFFSET 2.961098 0.000000 0.000000
													CHANNELS 3 Xrotation Yrotation Zrotation
													JOINT LeftHandRing4
													{
														OFFSET 4.927200 0.000000 0.000000
														CHANNELS 3 Xrotation Yrotation Zrotation
														End Site
														{
															OFFSET 0.000000 0.000000 0.000000
														}
													}
												}
											}
										}
										JOINT LeftHandPinky1
										{
											OFFSET 12.791824 -0.832031 -6.799156
											CHANNELS 3 Xrotation Yrotation Zrotation
											JOINT LeftHandPinky2
											{
												OFFSET 3.327133 0.000000 0.000000
												CHANNELS 3 Xrotation Yrotation Zrotation
												JOINT LeftHandPinky3
												{
													OFFSET 3.014900 0.000000 0.000000
													CHANNELS 3 Xrotation Yrotation Zrotation
													JOINT LeftHandPinky4
													{
														OFFSET 5.847786 0.000000 0.000000
														CHANNELS 3 Xrotation Yrotation Zrotation
														End Site
														{
															OFFSET 0.000000 0.000000 0.000000
														}
													}
												}
											}
										}
									}
								}
							}
						}
					}
					JOINT RightShoulder
					{
						OFFSET -6.292450 5.785301 -0.669000
						CHANNELS 3 Xrotation Yrotation Zrotation
						JOINT RightShoulder_split
						{
							OFFSET -6.292450 5.785301 -0.669000
							CHANNELS 3 Xrotation Yrotation Zrotation
							JOINT RightArm
							{
								OFFSET -13.907140 -6.093903 1.965100
								CHANNELS 3 Xrotation Yrotation Zrotation
								JOINT RightForeArm
								{
									OFFSET -34.140198 0.000000 0.000000
									CHANNELS 3 Xrotation Yrotation Zrotation
									JOINT RightHand
									{
										OFFSET -40.960209 0.000000 0.000000
										CHANNELS 3 Xrotation Yrotation Zrotation
										JOINT RightHandThumb1
										{
											OFFSET -10.007050 -7.170456 9.573117
											CHANNELS 3 Xrotation Yrotation Zrotation
											JOINT RightHandThumb2
											{
												OFFSET -1.835007 -1.059448 1.059443
												CHANNELS 3 Xrotation Yrotation Zrotation
												JOINT RightHandThumb3
												{
													OFFSET -2.112267 -1.219513 1.219518
													CHANNELS 3 Xrotation Yrotation Zrotation
													JOINT RightHandThumb4
													{
														OFFSET -4.843834 -2.796585 2.796590
														CHANNELS 3 Xrotation Yrotation Zrotation
														End Site
														{
															OFFSET 0.000000 0.000000 0.000000
														}
													}
												}
											}
										}
										JOINT RightHandIndex1
										{
											OFFSET -18.389870 -0.922424 4.596786
											CHANNELS 3 Xrotation Yrotation Zrotation
											JOINT RightHandIndex2
											{
												OFFSET -4.711273 0.000000 0.000000
												CHANNELS 3 Xrotation Yrotation Zrotation
												JOINT RightHandIndex3
												{
													OFFSET -2.886131 0.000000 0.000000
													CHANNELS 3 Xrotation Yrotation Zrotation
													JOINT RightHandIndex4
													{
														OFFSET -6.145920 0.000000 0.000000
														CHANNELS 3 Xrotation Yrotation Zrotation
														End Site
														{
															OFFSET 0.000000 0.000000 0.000000
														}
													}
												}
											}
										}
										JOINT RightHandMiddle1
										{
											OFFSET -18.013008 0.000000 0.000000
											CHANNELS 3 Xrotation Yrotation Zrotation
											JOINT RightHandMiddle2
											{
												OFFSET -4.946693 0.000000 0.000000
												CHANNELS 3 Xrotation Yrotation Zrotation
												JOINT RightHandMiddle3
												{
													OFFSET -3.342232 0.000000 0.000000
													CHANNELS 3 Xrotation Yrotation Zrotation
													JOINT RightHandMiddle4
													{
														OFFSET -4.461754 0.000000 0.000000
														CHANNELS 3 Xrotation Yrotation Zrotation
														End Site
														{
															OFFSET 0.000000 0.000000 0.000000
														}
													}
												}
											}
										}
										JOINT RightHandRing1
										{
											OFFSET -15.849876 -0.102936 -4.126237
											CHANNELS 3 Xrotation Yrotation Zrotation
											JOINT RightHandRing2
											{
												OFFSET -3.527054 0.000000 0.000000
												CHANNELS 3 Xrotation Yrotation Zrotation
												JOINT RightHandRing3
												{
													OFFSET -2.961098 0.000000 0.000000
													CHANNELS 3 Xrotation Yrotation Zrotation
													JOINT RightHandRing4
													{
														OFFSET -4.927200 0.000000 0.000000
														CHANNELS 3 Xrotation Yrotation Zrotation
														End Site
														{
															OFFSET 0.000000 0.000000 0.000000
														}
													}
												}
											}
										}
										JOINT RightHandPinky1
										{
											OFFSET -12.791786 -0.832077 -6.799222
											CHANNELS 3 Xrotation Yrotation Zrotation
											JOINT RightHandPinky2
											{
												OFFSET -3.327133 0.000000 0.000000
												CHANNELS 3 Xrotation Yrotation Zrotation
												JOINT RightHandPinky3
												{
													OFFSET -3.014900 0.000000 0.000000
													CHANNELS 3 Xrotation Yrotation Zrotation
													JOINT RightHandPinky4
													{
														OFFSET -5.847786 0.000000 0.000000
														CHANNELS 3 Xrotation Yrotation Zrotation
														End Site
														{
															OFFSET 0.000000 0.000000 0.000000
														}
													}
												}
											}
										}
									}
								}
							}
						}
					}
				}
			}
		}
	}
	JOINT LeftUpLeg
	{
		OFFSET 13.026900 -6.336304 -1.092800
		CHANNELS 3 Xrotation Yrotation Zrotation
		JOINT LeftLeg
		{
			OFFSET 0.524474 -46.096886 9.782700
			CHANNELS 3 Xrotation Yrotation Zrotation
			JOINT LeftFoot
			{
				OFFSET -0.524474 -53.427422 -12.948200
				CHANNELS 3 Xrotation Yrotation Zrotation
				JOINT LeftToeBase
				{
					OFFSET 0.192200 -14.009700 16.364100
					CHANNELS 3 Xrotation Yrotation Zrotation
					JOINT LeftToe_End
					{
						OFFSET -1.784700 -0.561700 9.474800
						CHANNELS 3 Xrotation Yrotation Zrotation
						End Site
						{
							OFFSET 0.000000 0.000000 0.000000
						}
					}
				}
			}
		}
	}
	JOINT RightUpLeg
	{
		OFFSET -12.883000 -6.336304 -1.092800
		CHANNELS 3 Xrotation Yrotation Zrotation
		JOINT RightLeg
		{
			OFFSET -0.524587 -46.096825 9.782800
			CHANNELS 3 Xrotation Yrotation Zrotation
			JOINT RightFoot
			{
				OFFSET 0.524587 -53.427383 -12.948300
				CHANNELS 3 Xrotation Yrotation Zrotation
				JOINT RightToeBase
				{
					OFFSET -0.192200 -14.009700 16.364100
					CHANNELS 3 Xrotation Yrotation Zrotation
					JOINT RightToe_End
					{
						OFFSET 1.784700 -0.561700 9.474800
						CHANNELS 3 Xrotation Yrotation Zrotation
						End Site
						{
							OFFSET 0.000000 0.000000 0.000000
						}
					}
				}
			}
		}
	}
}
MOTION
Frames: 4
Frame Time: 0.016667
-0.008320 111.173080 -0.827874 5.049080 -15.753423 0.299640 23.105347 4.417320 -0.474222 3.699121 1.240174 -0.846330 0.000000 0.000000 0.000000 3.692592 1.312477 -0.857370 -12.698245 1.123398 2.281902 -14.088305 7.829660 -3.298854 -0.000000 -0.000000 0.000000 7.811588 -20.950973 9.744743 0.000000 0.000000 0.000000 -33.643026 -3.124199 -85.445619 0.000015 -42.998315 -4.823170 -17.287076 -10.866541 -12.598988 -7.471932 1.860690 -7.166927 30.986990 27.310527 -4.510895 83.254665 13.297913 -10.940280 0.000001 0.000001 -0.000001 -4.713136 11.342521 -75.220942 -0.816403 3.073994 -46.874639 -4.740620 0.379143 -78.699441 -0.000002 -0.000000 0.000003 1.616658 16.582649 -84.688827 0.018010 0.022052 -72.884853 -1.302647 -0.091466 -19.943232 0.000002 -0.000000 0.000000 -6.443167 23.132650 -76.210178 0.013349 0.983454 -51.003608 6.785064 8.429325 -40.138706 0.000000 0.000001 0.000000 -17.098986 22.128954 -43.123185 0.019741 0.027036 -78.662893 0.004939 0.007733 -26.297169 -0.000001 -0.000001 -0.000001 13.917690 27.239904 -23.496414 0.000000 0.000000 0.000000 -43.128560 -5.411298 84.812228 0.000022 58.104590 5.767258 -18.206861 16.096510 8.636256 9.347155 2.810544 -11.364514 16.169047 -43.266018 15.843544 32.491859 -44.566738 5.661165 -0.000000 0.000001 0.000001 17.076774 -0.396530 31.924345 -0.204420 -0.284226 112.811550 1.553151 -1.173027 33.344550 -0.000000 0.000002 0.000000 9.205463 -5.035901 102.738094 0.014977 -0.019189 61.018506 1.871351 0.346189 31.443776 -0.000000 0.000000 0.000001 5.569138 -8.935235 107.329080 0.547996 -0.005791 41.263720 0.739128 0.837861 51.122228 0.000002 -0.000001 -0.000007 6.511214 -17.148238 98.228031 0.007410 -0.015755 43.845733 0.011241 -0.024782 57.754556 -0.000001 0.000001 -0.000002 -34.029269 2.858207 10.039606 27.829327 4.733740 1.429328 2.167996 0.369918 -6.419475 -0.359394 -1.379843 -0.238581 -0.000000 0.000000 0.000000 -15.440860 -10.363897 -13.267187 28.537104 -6.391422 1.441445 -15.079111 -2.320966 11.748979 -1.225845 1.216098 -0.217466 -0.000000 0.000003 0.000000 
0.033491 111.154922 -0.851222 5.033830 -16.010271 0.324900 23.104676 4.452186 -0.476264 3.697002 1.270047 -0.848467 0.000000 0.000000 0.000000 3.690617 1.342608 -0.860966 -12.863712 1.675244 2.090666 -13.987700 8.414726 -3.310302 0.000001 0.000000 -0.000000 7.686571 -20.788210 9.327155 0.000000 0.000000 0.000000 -33.679632 -3.519084 -85.304698 0.000015 -43.357276 -4.333572 -17.231573 -10.328820 -12.796301 -7.471932 1.860689 -7.166925 30.987001 27.310527 -4.510894 83.254658 13.297917 -10.940282 0.000005 -0.000000 -0.000001 -4.711742 11.345195 -75.237478 -0.816402 3.073996 -46.874642 -4.740617 0.379145 -78.699441 -0.000001 -0.000000 0.000001 1.623069 16.576312 -84.598668 0.017974 0.022027 -72.792625 -1.301581 -0.093716 -19.851023 -0.000000 0.000001 0.000001 -6.615183 23.030145 -76.196388 0.013389 0.979934 -50.778666 6.748271 8.455644 -39.913604 0.000000 -0.000004 0.000002 -17.265740 21.699654 -43.572116 0.019302 0.026941 -77.688778 0.004958 0.007793 -26.450425 0.000001 0.000000 -0.000000 13.325443 26.974538 -22.684438 0.000000 0.000000 0.000000 -43.270676 -4.158106 84.402683 -0.000004 57.768046 5.603184 -18.560288 15.926154 8.602523 9.347160 2.810545 -11.364519 16.169047 -43.266014 15.843544 32.491859 -44.566738 5.661168 -0.000004 -0.000001 0.000001 17.076779 -0.396529 31.924338 -0.204421 -0.284226 112.811550 1.553152 -1.173027 33.344546 0.000000 -0.000001 -0.000001 9.205467 -5.035901 102.738087 0.014974 -0.019188 61.018499 1.871351 0.346192 31.443780 -0.000001 0.000000 0.000003 5.569144 -8.935234 107.329080 0.547993 -0.005790 41.263720 0.739128 0.837861 51.122231 0.000000 0.000002 0.000001 6.511218 -17.148238 98.228031 0.007407 -0.015754 43.845733 0.011241 -0.024781 57.754556 -0.000002 0.000001 -0.000002 -33.992666 2.826560 10.104852 27.900244 4.978066 1.405589 2.123903 0.380504 -6.475810 -0.335575 -1.319984 -0.249762 -0.000000 0.000000 0.000000 -15.584718 -10.402333 -13.292141 28.588221 -6.094780 1.380058 -15.053513 -2.299931 11.686522 -1.216012 1.216418 -0.216169 0.000000 -0.000001 -0.000000 
0.083833 111.119926 -0.893641 5.038498 -16.335156 0.365271 23.111576 4.503825 -0.476392 3.678783 1.304125 -0.850523 0.000000 0.000000 0.000000 3.672122 1.375556 -0.864476 -13.000388 2.224550 1.887413 -13.930414 9.001493 -3.326597 0.000001 -0.000000 -0.000000 7.549176 -20.634831 8.867793 0.000000 0.000000 0.000000 -33.753986 -3.967012 -84.994020 0.000015 -43.669641 -3.983660 -17.295434 -9.823983 -12.930748 -7.471934 1.860689 -7.166922 30.986997 27.310525 -4.510892 83.254665 13.297910 -10.940277 -0.000002 -0.000001 0.000000 -4.710333 11.347917 -75.254375 -0.816408 3.073995 -46.874635 -4.740619 0.379138 -78.699448 0.000002 0.000000 0.000000 1.629758 16.569757 -84.504876 0.017952 0.022013 -72.696633 -1.300432 -0.096046 -19.755100 -0.000001 0.000004 -0.000001 -6.793092 22.924036 -76.193410 0.013303 0.979870 -50.545224 6.709869 8.482883 -39.679280 0.000000 0.000000 -0.000002 -17.423662 21.254439 -44.081208 0.018847 0.026836 -76.662685 0.004975 0.007846 -26.604323 0.000000 0.000001 0.000000 12.767503 26.735606 -21.908238 0.000000 0.000000 0.000000 -43.497756 -2.834410 83.950982 0.000016 57.335729 5.420084 -18.961459 15.774161 8.544087 9.347157 2.810545 -11.364515 16.169045 -43.266018 15.843546 32.491859 -44.566738 5.661168 -0.000001 0.000000 0.000001 17.076781 -0.396530 31.924342 -0.204421 -0.284225 112.811543 1.553152 -1.173026 33.344546 -0.000000 0.000001 0.000002 9.205465 -5.035901 102.738087 0.014978 -0.019189 61.018499 1.871351 0.346192 31.443776 -0.000002 0.000001 0.000001 5.569139 -8.935234 107.329080 0.547994 -0.005788 41.263720 0.739128 0.837863 51.122228 -0.000002 0.000003 0.000002 6.511214 -17.148240 98.228031 0.007410 -0.015752 43.845737 0.011240 -0.024786 57.754556 0.000001 -0.000001 0.000002 -34.002861 2.859417 10.183009 28.005075 5.224096 1.411362 2.070726 0.391387 -6.543244 -0.283412 -1.290715 -0.296842 -0.000000 -0.000000 0.000000 -15.787286 -10.329877 -13.349789 28.696237 -5.806553 1.390101 -15.030764 -2.275374 11.599227 -1.219864 1.216311 -0.216681 0.000000 -0.000000 -0.000000 
0.137886 111.077133 -0.946318 5.043731 -16.702855 0.415342 23.116270 4.553517 -0.480388 3.668314 1.344949 -0.853237 0.000000 0.000000 0.000000 3.661470 1.415974 -0.869071 -13.136373 2.786677 1.677590 -13.885456 9.606062 -3.354275 0.000001 0.000000 -0.000000 7.406744 -20.484205 8.380342 0.000000 0.000000 0.000000 -33.834442 -4.568834 -84.564114 0.000040 -43.951748 -3.707956 -17.514617 -9.378003 -12.968292 -7.471935 1.860693 -7.166923 30.986994 27.310527 -4.510889 83.254665 13.297914 -10.940278 0.000001 -0.000001 0.000000 -4.708830 11.350792 -75.272175 -0.816406 3.073996 -46.874642 -4.740618 0.379145 -78.699434 -0.000002 0.000000 0.000001 1.633157 16.563858 -84.406351 0.017903 0.022020 -72.597165 -1.299208 -0.098471 -19.655708 -0.000004 -0.000000 -0.000003 -6.976369 22.814635 -76.199551 0.013203 0.979803 -50.303356 6.669955 8.510952 -39.436474 0.000002 -0.000003 0.000001 -17.571341 20.794176 -44.643373 0.018385 0.026717 -75.590038 0.005008 0.007907 -26.758682 0.000000 -0.000002 -0.000000 12.246202 26.525444 -21.177150 0.000000 0.000000 0.000000 -43.721369 -1.487033 83.438629 0.000037 56.901725 5.282911 -19.419546 15.653895 8.438902 9.347162 2.810547 -11.364515 16.169049 -43.266018 15.843539 32.491852 -44.566738 5.661169 0.000001 -0.000001 0.000000 17.076781 -0.396528 31.924342 -0.204419 -0.284226 112.811550 1.553152 -1.173029 33.344543 0.000000 0.000001 0.000000 9.205468 -5.035901 102.738087 0.014975 -0.019189 61.018506 1.871350 0.346188 31.443780 -0.000001 0.000000 0.000000 5.569142 -8.935234 107.329094 0.547996 -0.005791 41.263720 0.739128 0.837864 51.122228 0.000003 -0.000001 0.000002 6.511217 -17.148237 98.228031 0.007410 -0.015755 43.845737 0.011241 -0.024786 57.754550 0.000001 0.000001 0.000002 -34.003841 2.827100 10.282600 28.129425 5.560482 1.374098 2.013177 0.402260 -6.624142 -0.275276 -1.244940 -0.295518 -0.000000 0.000000 0.000000 -16.057553 -10.377986 -13.413722 28.824020 -5.366414 1.344085 -15.009605 -2.242096 11.482371 -1.204934 1.211277 -0.209832 0.000000 0.000001 0.000000 
